<?xml version="1.0" encoding="UTF-8" standalone="no"?>
<!-- Created with Inkscape (http://www.inkscape.org/) -->

<svg
   version="1.1"
   id="svg1"
   width="1024"
   height="1024"
   viewBox="0 0 1024 1024"
   sodipodi:docname="toolkudu1.svg"
   inkscape:version="1.4 (86a8ad7, 2024-10-11)"
   xmlns:inkscape="http://www.inkscape.org/namespaces/inkscape"
   xmlns:sodipodi="http://sodipodi.sourceforge.net/DTD/sodipodi-0.dtd"
   xmlns="http://www.w3.org/2000/svg"
   xmlns:svg="http://www.w3.org/2000/svg">
  <defs
     id="defs1" />
  <sodipodi:namedview
     id="namedview1"
     pagecolor="#ffffff"
     bordercolor="#000000"
     borderopacity="0.25"
     inkscape:showpageshadow="2"
     inkscape:pageopacity="0.0"
     inkscape:pagecheckerboard="0"
     inkscape:deskcolor="#d1d1d1"
     showgrid="false"
     inkscape:zoom="0.78808594"
     inkscape:cx="520.24783"
     inkscape:cy="451.09294"
     inkscape:window-width="1920"
     inkscape:window-height="1009"
     inkscape:window-x="-8"
     inkscape:window-y="264"
     inkscape:window-maximized="1"
     inkscape:current-layer="svg1" />
  <rect
     style="fill:#ffffff"
     id="rect1"
     width="1020.1933"
     height="1021.4622"
     x="3.8066914"
     y="2.5377944" />
  <g
     inkscape:groupmode="layer"
     inkscape:label="Image"
     id="g1">
    <g
       id="g58"
       transform="matrix(1.2714644,0,0,1.6165113,-422.67385,-82.071654)">
      <path
         style="fill:#876506;stroke-width:1.35886"
         d="m 569.89937,619.88479 c -7.6492,-2.79506 -7.56402,-1.46716 -7.56402,-117.91601 0,-59.31416 0.33742,-108.13902 0.74981,-108.49967 0.41241,-0.36066 4.15123,0.11589 8.30851,1.05896 4.15729,0.9431 9.70478,1.71472 12.32776,1.71472 h 4.76905 v 108.57943 108.57941 l -3.26939,3.24914 c -3.67745,3.65467 -10.32856,5.05855 -15.32172,3.23402 z m -7.56402,-310.6893 c 0,-10.3461 0.1379,-10.80268 3.26939,-10.8294 3.91673,-0.0334 15.26962,-4.38359 18.86369,-7.22812 2.44205,-1.93276 2.56899,-1.33126 2.56899,12.17358 0,14.08081 -0.033,14.21779 -3.72725,15.44611 -2.04998,0.68163 -7.60795,1.23932 -12.35104,1.23932 h -8.62378 z m 21.36812,-80.94139 c -2.23326,-1.42332 -7.79122,-3.55594 -12.35104,-4.73915 l -8.29055,-2.15128 -0.39604,-23.11688 -0.39605,-23.11686 h -18.13051 -18.1305 v 9.91195 c 0,6.01495 -0.68554,10.51149 -1.74368,11.43688 -1.08586,0.94962 -6.45805,1.52491 -14.24001,1.52491 -7.78197,0 -13.15416,-0.57529 -14.24002,-1.52491 -2.48772,-2.17562 -2.48772,-72.29114 0,-74.46675 1.10569,-0.96697 6.67794,-1.52492 15.22948,-1.52492 15.26159,0 14.58794,-0.53011 15.34106,12.07226 l 0.3797,6.35382 25.4286,0.82677 c 27.46349,0.89294 36.5598,2.42276 52.15546,8.77149 19.92689,8.11191 37.18684,21.79008 48.0206,38.05537 5.40492,8.11469 11.70979,21.37114 11.70979,24.62069 0,0.90839 -5.72144,-3.27424 -12.71431,-9.29472 -9.29322,-8.00097 -15.84242,-12.36334 -24.33989,-16.21261 -10.06178,-4.55788 -30.83369,-10.55023 -36.57136,-10.55023 -1.46644,0 -1.96384,6.10591 -2.26919,27.85601 l -0.39106,27.85602 z"
         id="path59" />
      <path
         style="fill:#2f3b44;stroke-width:1.35886"
         d="m 0,1020.8683 v -3.1315 l 16.346958,0.5714 c 8.990827,0.3144 20.924106,0.8736 26.518398,1.2426 5.594292,0.369 15.654979,0.9923 22.357081,1.3851 29.581167,1.7336 22.149756,2.7919 -20.540752,2.9248 L 0,1024 Z M 619.0048,617.58883 c 0,-6.28967 14.31719,-18.15985 24.76318,-20.5308 3.16312,-0.71795 8.28129,-1.87914 11.3737,-2.58043 7.45385,-1.69037 13.26726,-5.82954 13.26726,-9.44632 0,-1.6018 -2.63194,-9.04024 -5.84875,-16.52989 -10.15652,-23.64718 -12.07991,-31.43925 -11.15278,-45.18224 0.87145,-12.91754 3.89825,-22.4943 11.93034,-37.74744 5.11143,-9.7067 18.94558,-27.92833 28.01299,-36.89728 l 5.44726,-5.38809 7.90065,10.47115 c 4.34537,5.75914 12.69072,14.61633 18.54523,19.68266 10.17875,8.8084 36.83242,25.66088 43.51695,27.5147 1.74695,0.48449 -5.11878,-6.45237 -15.25716,-15.41525 -20.4753,-18.10126 -31.66282,-31.00747 -42.29712,-48.79502 -6.47947,-10.83794 -13.18941,-26.66217 -13.18941,-31.10492 0,-1.35695 2.53167,-1.77229 10.80297,-1.77229 21.41993,0 37.32159,-4.45758 57.86963,-16.22212 6.20213,-3.55096 14.70255,-7.43833 18.88981,-8.63858 25.50549,-7.31098 47.0222,-22.12293 53.20874,-36.62854 1.75501,-4.11497 2.99559,-7.99427 2.75685,-8.62065 -0.23875,-0.62639 -2.88199,1.72864 -5.87389,5.23337 -10.62726,12.44893 -25.64535,21.19399 -49.66184,28.91818 -11.21447,3.60681 -20.30062,7.47123 -25.24928,10.73876 -10.27587,6.785 -24.0695,12.30466 -34.57237,13.83449 -4.70485,0.6853 -18.36245,1.25016 -30.35021,1.25524 -22.9687,0.0102 -41.41337,-2.55209 -65.72939,-9.12926 l -10.513,-2.84363 -10.55642,2.41715 c -20.03103,4.58663 -44.30075,1.96504 -50.22285,-5.42503 -5.80092,-7.23885 -8.28464,-16.69972 -8.28464,-31.55754 0,-10.07936 0.56843,-14.69748 1.99424,-16.20224 1.6659,-1.75811 5.04967,-2.10465 20.5507,-2.10465 19.96846,0 20.32042,-0.12231 20.32042,-7.06168 0,-2.66942 0.41871,-2.9023 3.42256,-1.90352 1.8824,0.6259 6.79924,2.95502 10.9263,5.17585 12.76349,6.86816 18.32407,6.34599 54.67163,-5.13401 10.93746,-3.4545 15.43334,-4.18027 27.47309,-4.43498 14.24867,-0.30147 14.4173,-0.34182 16.53192,-3.95692 6.67711,-11.41498 19.60976,-22.16438 34.72509,-28.86295 6.40948,-2.84044 7.51582,-3.90442 8.41363,-8.0914 2.7829,-12.97826 16.03459,-27.31513 32.40913,-35.0631 9.94383,-4.70514 26.12613,-7.60689 36.54357,-6.55286 7.87384,0.79667 8.00598,0.75945 4.73964,-1.33481 -5.50205,-3.52773 -20.51967,-5.18896 -31.72879,-3.5098 -22.82432,3.41915 -40.91306,16.11411 -52.15922,36.60615 -5.69919,10.38472 -7.26687,12.18731 -13.27867,15.26846 -8.68542,4.45141 -18.47207,12.33449 -23.9372,19.28123 -3.81278,4.84643 -4.88876,5.42983 -10.01421,5.42983 -6.7399,0 -6.67798,0.31042 -2.77647,-13.92305 3.34982,-12.2208 12.48561,-29.90815 22.30394,-43.18158 13.29067,-17.9677 16.37084,-25.29871 13.94273,-33.1847 -2.04957,-6.6566 -9.27721,-10.81916 -23.19124,-13.35634 -11.3179,-2.06379 -14.42745,-3.1568 -18.08769,-6.35782 -3.34139,-2.92219 -2.81776,-4.36523 1.584,-4.36523 2.13228,0 8.0901,-0.64165 13.23958,-1.42589 11.82298,-1.80058 9.37875,-3.61076 -4.91189,-3.63771 -15.08189,-0.0285 -18.6888,-1.49958 -22.90652,-9.34283 -4.36894,-8.12442 -6.69791,-15.37107 -5.47838,-17.04615 0.50773,-0.69738 3.21172,-1.67286 6.00887,-2.16772 2.79714,-0.49486 12.49423,-2.65208 21.54907,-4.79383 15.38614,-3.63927 16.67995,-4.19413 19.77362,-8.48001 11.18477,-15.49494 31.75479,-22.90254 59.26871,-21.34363 l 13.20855,0.74838 6.47319,-4.98307 c 8.27615,-6.371 15.05048,-7.64419 22.07981,-4.14974 7.53623,3.74643 10.57773,9.54591 9.62181,18.3467 l -0.77865,7.16883 10.56639,10.03532 c 22.42463,21.29752 31.81997,36.06879 38.77414,60.96026 0.81057,2.90132 4.46881,9.1005 8.12943,13.77596 8.29966,10.60062 15.69789,24.17738 19.04834,34.95636 4.01131,12.90509 3.47688,39.02138 -1.11819,54.64284 -2.96811,10.09042 -3.55106,15.09716 -3.55106,30.49832 0,21.74532 1.50756,26.9879 15.32596,53.29603 12.50012,23.79833 14.45953,31.44949 14.47201,56.5106 0.0145,28.3651 1.36796,33.03252 21.4119,73.81871 21.04372,42.82057 25.6843,70.09972 14.41319,84.72657 -5.59372,7.25918 -6.36855,7.3646 -54.27607,7.38506 -24.12817,0.0102 -44.18885,-0.43329 -44.57927,-0.98577 -1.36589,-1.93279 3.81414,-9.11622 10.54321,-14.6208 5.68044,-4.64677 13.07809,-8.02449 23.05233,-10.52553 6.55079,-1.6426 -4.20556,-9.14773 -29.42452,-20.53067 -18.9692,-8.56202 -23.21453,-11.07589 -32.7341,-19.38343 -17.39746,-15.18241 -27.12582,-35.38171 -30.7661,-63.88061 -2.68939,-21.05457 0.65844,-39.53306 10.64633,-58.76285 6.03117,-11.61187 5.84234,-10.99062 2.92554,-9.62544 -7.02923,3.28997 -19.53241,20.45437 -25.06211,34.40533 -2.76332,6.97161 -3.28965,11.03487 -3.37447,26.05065 -0.0965,17.07558 1.61069,26.36317 7.15471,38.92453 0.67065,1.51951 -0.31004,2.44577 -3.6759,3.47189 -7.52075,2.29284 -22.46339,12.34998 -29.00729,19.52336 -11.67115,12.79385 -17.64779,27.05214 -20.387,48.63665 -1.78609,14.0741 -4.454,20.13289 -10.5956,24.06251 -3.93869,2.5201 -6.18701,2.63784 -57.03272,2.98647 -51.06084,0.35011 -52.9324,0.27812 -52.9324,-2.03591 z M 740.28658,151.03276 c 3.67764,-3.55392 1.88091,-6.40116 -4.0394,-6.40116 -3.1314,0 -5.90044,0.96088 -7.6549,2.6563 -2.69736,2.60662 -2.69637,2.6898 0.0525,4.44768 3.92744,2.51151 8.60794,2.22894 11.64178,-0.70282 z M 611.73949,317.27849 c -2.79715,-1.48993 -7.37429,-4.35518 -10.17144,-6.36723 l -5.08572,-3.65826 -1.63246,-35.8809 c -0.89786,-19.73449 -2.1121,-36.88163 -2.69832,-38.10474 -2.71493,-5.66449 10.16249,0.84772 14.09169,7.12627 0.93696,1.49718 2.42432,6.1417 3.30525,10.32115 1.60085,7.59509 1.60504,7.59978 8.07187,9.07222 3.55859,0.81027 12.13031,2.39173 19.04827,3.51435 6.91795,1.12263 13.47273,2.34137 14.56617,2.70833 1.26626,0.42494 4.19752,-2.27176 8.07338,-7.42734 6.29089,-8.368 16.68351,-16.25785 27.92069,-21.19678 9.03083,-3.96919 21.86584,-7.69887 21.86584,-6.35392 0,0.6171 -2.81046,4.73217 -6.24547,9.1446 -16.25088,20.87498 -25.78234,39.42968 -29.10831,56.66462 l -1.89373,9.8131 -19.51914,6.62321 c -22.64515,7.6839 -31.95251,8.60145 -40.58857,4.00132 z m -63.67993,-29.2927 c -6.79522,-3.02094 -9.54117,-10.38854 -10.1546,-27.24547 -0.48901,-13.43815 -0.17982,-16.16886 2.4107,-21.29044 3.51386,-6.94707 6.89474,-8.40635 19.47593,-8.40635 10.79215,0 20.53439,3.68859 23.64748,8.95336 2.31089,3.90812 2.02358,4.3054 -5.1133,7.0704 l -3.63938,1.40999 5.44898,2.31997 c 6.87909,2.92886 6.92928,5.84424 0.14932,8.67176 l -5.29967,2.21017 4.9364,2.15518 c 6.68293,2.91767 6.26406,5.56608 -1.23911,7.83442 -3.39654,1.02683 -6.17552,2.24984 -6.17552,2.7178 0,0.46794 2.28858,1.2263 5.08572,1.68521 5.20964,0.85471 5.7565,1.52418 4.17998,5.1171 -2.47722,5.6456 -25.74898,10.33747 -33.71293,6.7969 z M 755.89263,113.13223 c 0.75433,-3.32322 10.02489,-6.83436 16.26028,-6.1584 5.91499,0.64122 12.06008,4.69926 10.48695,6.92529 -0.51864,0.7339 -6.59114,1.25398 -14.0438,1.2028 -10.77603,-0.074 -13.05356,-0.42715 -12.70343,-1.96969 z"
         id="path58" />
    </g>
  </g>
</svg>
